<svg width="20" height="20" viewBox="0 0 20 20" fill="none" xmlns="http://www.w3.org/2000/svg">
<path fill-rule="evenodd" clip-rule="evenodd" d="M8.73712 15.0835L10.2805 12.486C10.4513 12.1985 10.4338 11.8368 10.2355 11.5668L8.16962 8.75679C8.00712 8.59429 8.00712 8.33012 8.16962 8.16762C8.33295 8.00512 8.59628 8.00512 8.75878 8.16762L11.6021 10.221C11.8713 10.4151 12.2296 10.4318 12.5146 10.2618L15.0846 8.73596L5.61295 5.61262L8.73712 15.0835ZM3.71462 3.71429C3.93629 3.49262 4.26545 3.41512 4.56462 3.51262L17.3455 7.72596C17.6555 7.82762 17.8771 8.10262 17.913 8.42679C17.9488 8.75179 17.7905 9.06679 17.5096 9.23346L12.3188 12.3168L9.23545 17.5085C9.08462 17.7626 8.81129 17.916 8.51879 17.916C8.48878 17.916 8.45879 17.9143 8.42879 17.911C8.10379 17.876 7.82962 17.6535 7.72795 17.3435L3.51212 4.56512C3.41295 4.26596 3.49129 3.93762 3.71462 3.71429Z" fill="white"/>
</svg>
